<svg width="510" height="510" viewBox="0 0 510 510" fill="none" xmlns="http://www.w3.org/2000/svg">
<path d="M206.288 175.334V130.873C206.288 103.988 228.252 82.1083 255.259 82.1083C282.258 82.1083 304.222 103.988 304.222 130.873V175.334L331.445 189.603V130.873C331.445 89.0392 297.273 55 255.259 55C213.245 55 179.064 89.0392 179.064 130.873V189.603L206.288 175.334Z" fill="#3498DB"/>
<path fill-rule="evenodd" clip-rule="evenodd" d="M255.25 420.867V454.938L383.364 381.065L383.503 346.917L255.25 420.867ZM255.25 159.361V193.425L324.172 233.173L296.789 248.876L296.758 282.925L383.364 233.234L255.25 159.361Z" fill="#0D629C"/>
<path fill-rule="evenodd" clip-rule="evenodd" d="M255.187 166.651V159.83L127.004 232.097V379.928L255.187 453.84L255.257 453.801V419.73L255.187 419.776C234.654 407.939 177.068 374.73 156.542 362.892V249.133L255.187 192.25L255.257 192.288L255.187 166.651Z" fill="#3498DB"/>
<path d="M255.413 355.622V389.694L255.343 389.732L184.004 348.598L213.542 331.57L255.343 355.668L255.413 355.622Z" fill="#FFBC50"/>
<path d="M255.343 225.204L255.413 225.243V259.307L255.343 259.268C245.227 265.098 228.315 274.849 228.315 274.849L255.413 290.475V324.539L191.394 287.625V262.079L255.343 225.204Z" fill="#FFBC50"/>
<path d="M254.684 324.075V290.011L318.563 326.847V352.393L286.623 370.811L255 390L254.684 355.158L281.635 339.616L254.684 324.075Z" fill="#FC7A00"/>
<path d="M255 259.5L255 225L297 249V283L255 259.5Z" fill="#FC7A00"/>
<path d="M255.253 193.37V159.261L127 232.026L156.641 249.08L255.253 193.37Z" fill="#0D629C"/>
</svg>
