<svg width="1092" height="510" viewBox="0 0 1092 510" fill="none" xmlns="http://www.w3.org/2000/svg">
<path d="M959.896 384.264C954.392 384.264 947.736 382.6 943.256 380.168L947.224 367.368C950.424 369.16 953.752 370.312 955.928 370.312C959.512 370.312 962.328 369.16 963.736 366.728L966.04 361.864L938.52 295.048H957.848L975.256 341.512L991.768 295.048H1010.84L983.704 364.552C978.712 377.48 970.264 384.264 959.896 384.264Z" fill="#0D629C"/>
<path d="M909.791 361.224V271.752H928.479V361.224H909.791Z" fill="#0D629C"/>
<path d="M893.608 344.84L898.088 357C894.248 360.456 888.232 362.76 882.856 362.76C871.208 362.76 863.016 354.44 863.016 342.536V310.152H853.928V295.048H863.016V276.872H880.936V295.048H895.272V310.152H880.936V339.592C880.936 343.944 883.752 347.016 887.208 347.016C889.768 347.016 892.328 346.12 893.608 344.84Z" fill="#0D629C"/>
<path d="M818.437 293.512C832.773 293.512 843.013 304.136 843.013 319.112V361.224H824.965V323.08C824.965 314.888 819.845 309.256 812.421 309.256C804.613 309.256 798.597 314.888 798.597 322.056L798.469 321.672V361.224H779.781V295.048H798.469V303.368C802.437 297.352 809.861 293.512 818.437 293.512Z" fill="#0D629C"/>
<path d="M735.522 346.248C740.77 346.248 747.17 343.816 750.754 340.36L762.658 352.52C756.77 358.664 745.378 362.76 735.65 362.76C715.938 362.76 700.578 348.296 700.578 327.944C700.578 307.976 715.298 293.512 734.626 293.512C755.362 293.512 767.522 309.256 767.522 334.216H719.778C721.954 341.384 727.714 346.248 735.522 346.248ZM735.394 310.024C728.354 310.024 722.466 314.12 720.034 320.776H749.602C747.81 314.248 742.946 310.024 735.394 310.024Z" fill="#0D629C"/>
<path d="M670.854 307.336C675.206 298.76 683.398 293.512 693.51 293.512V309.256C679.686 309.256 670.854 317.192 670.854 329.608V361.224H652.166V295.048H670.854V307.336Z" fill="#0D629C"/>
<path d="M607.522 346.248C612.77 346.248 619.17 343.816 622.754 340.36L634.658 352.52C628.77 358.664 617.378 362.76 607.65 362.76C587.938 362.76 572.578 348.296 572.578 327.944C572.578 307.976 587.298 293.512 606.626 293.512C627.362 293.512 639.522 309.256 639.522 334.216H591.778C593.954 341.384 599.714 346.248 607.522 346.248ZM607.394 310.024C600.354 310.024 594.466 314.12 592.034 320.776H621.602C619.81 314.248 614.946 310.024 607.394 310.024Z" fill="#0D629C"/>
<path d="M549.936 291.464V295.048H564.272V310.152H549.936V361.224H532.016V310.152H522.928V295.048H532.016V289.288C532.016 277.384 540.208 269.064 551.856 269.064C557.232 269.064 563.248 271.368 567.088 274.824L562.608 286.216C561.328 284.936 558.768 284.04 556.208 284.04C552.752 284.04 549.936 287.112 549.936 291.464Z" fill="#0D629C"/>
<path d="M501.436 291.464V295.048H515.772V310.152H501.436V361.224H483.516V310.152H474.428V295.048H483.516V289.288C483.516 277.384 491.708 269.064 503.356 269.064C508.732 269.064 514.748 271.368 518.588 274.824L514.108 286.216C512.828 284.936 510.268 284.04 507.708 284.04C504.252 284.04 501.436 287.112 501.436 291.464Z" fill="#0D629C"/>
<path d="M453.76 285.96C448 285.96 443.52 281.352 443.52 275.72C443.52 270.472 448 265.736 453.76 265.736C459.264 265.736 463.744 270.472 463.744 275.72C463.744 281.352 459.264 285.96 453.76 285.96ZM444.288 361.224V295.048H462.976V361.224H444.288Z" fill="#0D629C"/>
<path d="M348.32 361.224V273.288H379.808C409.376 273.288 430.368 291.464 430.368 317.192C430.368 342.92 409.376 361.224 379.808 361.224H348.32ZM367.136 344.072H382.24C399.008 344.072 410.912 332.936 410.912 317.192C410.912 301.576 399.008 290.44 382.24 290.44H367.136V344.072Z" fill="#0D629C"/>
<path d="M805.771 256.264C800.267 256.264 793.611 254.6 789.131 252.168L793.099 239.368C796.299 241.16 799.627 242.312 801.803 242.312C805.387 242.312 808.203 241.16 809.611 238.728L811.915 233.864L784.395 167.048H803.723L821.131 213.512L837.643 167.048H856.715L829.579 236.552C824.587 249.48 816.139 256.264 805.771 256.264Z" fill="#0D629C"/>
<path d="M774.483 216.84L778.963 229C775.123 232.456 769.107 234.76 763.731 234.76C752.083 234.76 743.891 226.44 743.891 214.536V182.152H734.803V167.048H743.891V148.872H761.811V167.048H776.147V182.152H761.811V211.592C761.811 215.944 764.627 219.016 768.083 219.016C770.643 219.016 773.203 218.12 774.483 216.84Z" fill="#0D629C"/>
<path d="M714.135 157.96C708.375 157.96 703.895 153.352 703.895 147.72C703.895 142.472 708.375 137.736 714.135 137.736C719.639 137.736 724.119 142.472 724.119 147.72C724.119 153.352 719.639 157.96 714.135 157.96ZM704.663 233.224V167.048H723.351V233.224H704.663Z" fill="#0D629C"/>
<path d="M671.354 179.336C675.706 170.76 683.898 165.512 694.01 165.512V181.256C680.186 181.256 671.354 189.192 671.354 201.608V233.224H652.666V167.048H671.354V179.336Z" fill="#0D629C"/>
<path d="M617.944 167.048H636.632V233.224H617.944V224.904C613.976 230.92 606.552 234.76 597.976 234.76C583.64 234.76 573.4 224.136 573.4 209.16V167.048H591.448V205.192C591.448 213.384 596.568 219.016 603.992 219.016C611.8 219.016 617.816 213.384 617.816 206.216L617.944 206.6V167.048Z" fill="#0D629C"/>
<path d="M536.299 234.76C516.715 234.76 500.203 218.888 500.203 200.072C500.203 181.256 516.843 165.512 536.427 165.512C547.179 165.512 556.011 169.864 562.411 176.776L549.995 187.4C546.667 183.688 541.419 181.256 536.299 181.256C526.571 181.256 518.379 189.832 518.379 199.944C518.379 210.312 526.571 219.016 536.427 219.016C541.547 219.016 546.923 216.456 550.379 212.616L562.795 223.112C556.267 230.28 547.307 234.76 536.299 234.76Z" fill="#0D629C"/>
<path d="M459.272 218.248C464.52 218.248 470.92 215.816 474.504 212.36L486.408 224.52C480.52 230.664 469.128 234.76 459.4 234.76C439.688 234.76 424.328 220.296 424.328 199.944C424.328 179.976 439.048 165.512 458.376 165.512C479.112 165.512 491.272 181.256 491.272 206.216H443.528C445.704 213.384 451.464 218.248 459.272 218.248ZM459.144 182.024C452.104 182.024 446.216 186.12 443.784 192.776H473.352C471.56 186.248 466.696 182.024 459.144 182.024Z" fill="#0D629C"/>
<path d="M380.833 234.76C365.601 234.76 352.033 229.64 341.793 220.168L352.673 207.24C360.993 214.408 370.465 218.76 381.601 218.76C391.073 218.76 395.937 214.408 395.937 208.904C395.937 202.632 390.817 200.712 377.377 197.64C358.817 193.416 345.633 188.168 345.633 171.144C345.633 154.888 358.945 143.752 378.145 143.752C392.481 143.752 403.617 148.232 412.577 155.912L402.721 169.48C394.913 163.208 386.081 159.752 377.633 159.752C369.569 159.752 364.705 163.976 364.705 169.224C364.705 175.624 369.953 177.672 383.521 180.744C402.465 184.968 415.009 190.6 415.009 206.856C415.009 223.624 402.337 234.76 380.833 234.76Z" fill="#0D629C"/>
<path d="M158.448 190.259V155.801C158.448 134.966 175.47 118.009 196.4 118.009C217.324 118.009 234.346 134.966 234.346 155.801V190.259L255.445 201.317V155.801C255.445 123.38 228.961 97 196.4 97C163.84 97 137.35 123.38 137.35 155.801V201.317L158.448 190.259Z" fill="#3498DB"/>
<path fill-rule="evenodd" clip-rule="evenodd" d="M196.395 380.547V406.952L295.683 349.701L295.791 323.235L196.395 380.547ZM196.395 177.88V204.28L249.809 235.084L228.587 247.254L228.563 273.642L295.683 235.132L196.395 177.88Z" fill="#0D629C"/>
<path fill-rule="evenodd" clip-rule="evenodd" d="M196.346 183.53V178.243L97.0039 234.25V348.819L196.346 406.101L196.4 406.071V379.666L196.346 379.701C180.432 370.527 135.804 344.791 119.896 335.617V247.453L196.346 203.368L196.4 203.398L196.346 183.53Z" fill="#3498DB"/>
<path d="M196.52 329.982V356.388L196.466 356.417L141.178 324.539L164.07 311.342L196.466 330.018L196.52 329.982Z" fill="#FFBC50"/>
<path d="M196.466 228.908L196.52 228.938V255.338L196.466 255.308C188.626 259.826 175.519 267.383 175.519 267.383L196.52 279.493V305.893L146.905 277.285V257.487L196.466 228.908Z" fill="#FFBC50"/>
<path d="M195.955 305.533V279.133L245.462 307.682V327.48L220.708 341.754L196.2 356.625L195.955 329.622L216.842 317.578L195.955 305.533Z" fill="#FC7A00"/>
<path d="M196.199 255.488L196.199 228.75L228.749 247.35V273.7L196.199 255.488Z" fill="#FC7A00"/>
<path d="M196.396 204.237V177.803L97 234.195L119.972 247.412L196.396 204.237Z" fill="#0D629C"/>
</svg>
